<svg width="74" height="26" fill="none" xmlns="http://www.w3.org/2000/svg"><rect x=".5" y=".5" width="22" height="4" rx="2" stroke="#417A82"/><circle cx="2.5" cy="2.5" r="2" stroke="#417A82"/><path fill-rule="evenodd" clip-rule="evenodd" d="M.21 2.5H0V24h21V4.5h-1V23H1V3.154A1.51 1.51 0 0 1 .21 2.5Z" fill="#417A82"/><path stroke="#417A82" d="M10.5 24v2M1 20.5h19.598"/><path d="M45.487 18h-5.382V8.9h1.079v8.138h4.303V18Zm.104-3.25c0-1.1.243-1.941.728-2.522.494-.59 1.2-.884 2.12-.884.484 0 .905.082 1.26.247.364.156.663.386.897.689.234.295.407.654.52 1.079.113.416.17.88.17 1.391 0 1.1-.248 1.946-.742 2.535-.485.58-1.187.871-2.106.871-.485 0-.91-.078-1.274-.234a2.397 2.397 0 0 1-.884-.689 3.05 3.05 0 0 1-.52-1.079 5.468 5.468 0 0 1-.169-1.404Zm1.08 0c0 .33.03.646.09.949.07.303.173.568.312.793.139.225.32.407.546.546.225.139.498.208.82.208 1.178.009 1.767-.823 1.767-2.496 0-.338-.035-.659-.104-.962a2.397 2.397 0 0 0-.299-.793 1.532 1.532 0 0 0-.546-.533c-.225-.139-.498-.208-.819-.208-1.179-.009-1.768.823-1.768 2.496Zm9.322-2.249a2.343 2.343 0 0 0-.741-.13c-.373 0-.668.104-.884.312a1.3 1.3 0 0 0-.403.767V18h-1.04v-6.5h.728l.195.793h.052c.165-.295.36-.52.585-.676.234-.165.529-.247.884-.247.251 0 .533.043.845.13l-.221 1.001Zm6.095 4.979a2.93 2.93 0 0 1-.988.494 4.18 4.18 0 0 1-1.248.182c-.494 0-.923-.078-1.287-.234a2.373 2.373 0 0 1-.897-.689 3.05 3.05 0 0 1-.52-1.079 5.373 5.373 0 0 1-.17-1.404c0-1.11.248-1.954.742-2.535.494-.58 1.2-.871 2.119-.871.294 0 .59.035.884.104.294.06.559.182.793.364.234.182.425.442.572.78.147.33.22.767.22 1.313 0 .286-.025.602-.077.949h-4.173c0 .381.039.72.117 1.014.078.295.2.546.364.754.164.2.377.355.637.468.268.104.593.156.975.156.294 0 .59-.052.884-.156.295-.104.516-.225.663-.364l.39.754Zm-2.236-5.226c-.511 0-.923.134-1.235.403-.303.269-.485.728-.546 1.378h3.224c0-.659-.126-1.118-.377-1.378-.252-.269-.607-.403-1.066-.403ZM67.753 18v-3.679c0-.347-.017-.646-.052-.897a1.873 1.873 0 0 0-.169-.65.866.866 0 0 0-.377-.39c-.156-.087-.364-.13-.624-.13-.398 0-.732.121-1 .364a1.95 1.95 0 0 0-.547.91V18h-1.04v-6.5h.728l.195.793h.052c.234-.277.503-.503.806-.676.312-.182.715-.273 1.21-.273.415 0 .753.082 1.013.247.269.156.477.433.624.832.2-.338.473-.602.82-.793.355-.19.753-.286 1.195-.286.364 0 .672.043.923.13.252.078.46.221.624.429.165.208.282.49.351.845.078.355.117.806.117 1.352V18h-1.04v-3.913c0-.312-.017-.58-.052-.806a1.31 1.31 0 0 0-.182-.572.755.755 0 0 0-.377-.338c-.156-.078-.364-.117-.624-.117-.433 0-.771.121-1.014.364-.242.243-.416.59-.52 1.04V18h-1.04Z" fill="#417A82"/></svg>