<svg width="27" height="28" fill="none" xmlns="http://www.w3.org/2000/svg"><path stroke="#417A82" d="M2.5.646h24v2h-24zM4.5 14.646v-12h20v20h-20v-8Z"/><mask id="a" fill="#fff"><path d="M4 14.146c.525 0 1.045-.117 1.53-.343a4.005 4.005 0 0 0 1.298-.976c.372-.417.667-.913.868-1.46A4.992 4.992 0 0 0 8 9.647c0-.591-.103-1.177-.304-1.723a4.574 4.574 0 0 0-.868-1.46 4.004 4.004 0 0 0-1.297-.975A3.618 3.618 0 0 0 4 5.146v9Z"/></mask><path d="M4 14.146c.525 0 1.045-.117 1.53-.343a4.005 4.005 0 0 0 1.298-.976c.372-.417.667-.913.868-1.46A4.992 4.992 0 0 0 8 9.647c0-.591-.103-1.177-.304-1.723a4.574 4.574 0 0 0-.868-1.46 4.004 4.004 0 0 0-1.297-.975A3.618 3.618 0 0 0 4 5.146v9Z" stroke="#417A82" stroke-width="2" mask="url(#a)"/><mask id="b" fill="#fff"><path d="M23 23.145c0-.525-.116-1.045-.343-1.53a4.006 4.006 0 0 0-.975-1.298 4.573 4.573 0 0 0-1.46-.867 4.993 4.993 0 0 0-1.722-.305c-.59 0-1.176.104-1.722.305a4.573 4.573 0 0 0-1.46.867c-.418.372-.75.813-.976 1.298a3.618 3.618 0 0 0-.342 1.53h9Z"/></mask><path d="M23 23.145c0-.525-.116-1.045-.343-1.53a4.006 4.006 0 0 0-.975-1.298 4.573 4.573 0 0 0-1.46-.867 4.993 4.993 0 0 0-1.722-.305c-.59 0-1.176.104-1.722.305a4.573 4.573 0 0 0-1.46.867c-.418.372-.75.813-.976 1.298a3.618 3.618 0 0 0-.342 1.53h9Z" stroke="#417A82" stroke-width="2" mask="url(#b)"/><circle cx="20.5" cy="6.646" r="2" stroke="#417A82"/><circle cx="8.5" cy="18.645" r="2" stroke="#417A82"/><circle cx="16.5" cy="13.646" r="3" stroke="#417A82"/><path stroke="#417A82" d="M12.5 3.146v18.999M16.5 3.146v18.999M20.5 3.146v18.999M8.5 3.146v18.999"/></svg>